<?xml version="1.0" encoding="UTF-8"?>
<svg width="700pt" height="700pt" version="1.1" viewBox="0 0 700 700" xmlns="http://www.w3.org/2000/svg">
 <path d="m382.85 42.703 7.1367 7.9688c3.3672 3.7617 7.4336 6.4375 11.879 7.8789 4.418 1.4336 9.2852 1.668 14.266 0.59375l10.469-2.2539c6.2773-1.3438 12.441-1.3828 18.375-0.14062 5.9648 1.2578 11.594 3.7891 16.801 7.5742 5.1875 3.7617 9.332 8.3477 12.375 13.645 3.0352 5.2734 4.9062 11.164 5.5703 17.547l1.1172 10.855c0.52734 4.9492 2.2539 9.418 4.9688 13.156 2.7188 3.75 6.5156 6.793 11.145 8.8359l9.7969 4.332c5.9062 2.6133 10.941 6.2188 15.008 10.727 4.293 5.1719 7.0195 9.5234 9.1133 15.992 1.8711 6.1758 2.6914 11.852 2.0117 18.309-0.63672 6.0195-2.5859 11.879-5.8203 17.453l-5.3828 9.2617c-2.5352 4.3672-3.8086 9.0664-3.8086 13.738 0 4.6758 1.2773 9.3711 3.8086 13.738l5.3633 9.2539c3.2422 5.582 5.1914 11.449 5.8281 17.469 0.63672 6.0195-0.03125 12.156-2.0117 18.27-1.9766 6.125-5.0547 11.488-9.1328 16.008-4.0547 4.5312-9.0938 8.1367-15 10.75l-9.7695 4.3203c-4.6367 2.043-8.4258 5.0859-11.145 8.8281-2.7383 3.7773-4.4727 8.3398-4.9883 13.379l-0.78516 7.6523 87.473 110.58c2.8555 3.6172 2.2422 8.8906-1.375 11.746-2.0156 1.5938-4.5508 2.1016-6.8867 1.6211l-85-17.746-26.543 82.117c-1.4102 4.4062-6.1328 6.8242-10.535 5.418-2.6211-0.83984-4.5312-2.8438-5.3633-5.2578l-51.586-129.94c-3.6562 3.5-7.7383 6.25-12.172 8.2266-5.5742 2.4883-11.633 3.7578-18.043 3.7578s-12.461-1.2695-18.031-3.7578c-4.4453-1.9766-8.5195-4.7344-12.184-8.2266l-51.586 129.94c-0.83203 2.4141-2.7461 4.418-5.3633 5.2578-4.4062 1.4102-9.1289-1.0117-10.535-5.418l-26.543-82.117-84.992 17.766c-2.3398 0.46484-4.875-0.046875-6.8906-1.6406-3.6172-2.8555-4.2344-8.1289-1.375-11.746l87.473-110.58-0.78516-7.6406c-0.51562-5.0469-2.25-9.5977-4.9883-13.375-2.7188-3.75-6.5156-6.793-11.145-8.8359l-9.7969-4.332c-5.875-2.5938-10.895-6.2031-14.98-10.727-4.082-4.4922-7.1484-9.8555-9.1406-15.992-1.8711-6.1758-2.6914-11.848-2.0117-18.301 0.63672-6.0195 2.5859-11.879 5.8203-17.453l5.3828-9.2656c2.5352-4.3672 3.8086-9.0625 3.8086-13.738 0-4.668-1.2773-9.3711-3.8086-13.738l-5.3633-9.2461c-3.2344-5.5742-5.1914-11.449-5.8281-17.469-0.64844-6.0312 0.019531-12.176 2.0117-18.309 1.9766-6.0898 5.0547-11.449 9.1328-15.973 4.0547-4.5312 9.0938-8.1367 15-10.75l9.7695-4.3125c4.6445-2.0508 8.4258-5.0859 11.145-8.8359 2.7383-3.7773 4.4727-8.3281 4.9883-13.375l1.0977-10.656c0.66016-6.3828 2.5352-12.277 5.5703-17.547 3.043-5.2969 7.1914-9.8828 12.375-13.645 5.207-3.7852 10.836-6.3164 16.766-7.5742 6.3828-1.2109 12.031-1.2227 18.406 0.14062l10.469 2.2539c4.9727 1.0703 9.8477 0.83984 14.262-0.59375 4.4375-1.4414 8.5117-4.1094 11.887-7.8789l7.1367-7.9688c4.3047-4.8164 9.2734-8.4844 14.801-10.953 5.5742-2.4883 11.633-3.7578 18.043-3.7578s12.461 1.2695 18.035 3.7578c5.5312 2.4688 10.504 6.1445 14.809 10.953zm-86.422 181.91c-3.4062-3.1289-3.625-8.4414-0.49609-11.848 3.1289-3.4062 8.4414-3.625 11.848-0.49609l28.66 26.469 55.367-58.637c3.168-3.3672 8.4805-3.5312 11.848-0.36328 3.3672 3.168 3.5312 8.4805 0.36328 11.848l-61.008 64.609c-3.1289 3.4062-8.4414 3.625-11.848 0.49609l-34.73-32.078zm-63.812-6.4297c0-32.418 13.141-61.77 34.379-83.008 21.238-21.238 50.594-34.379 83.008-34.379 32.418 0 61.77 13.141 83.008 34.379 21.238 21.238 34.379 50.594 34.379 83.008 0 32.41-13.141 61.77-34.379 83.008-21.238 21.238-50.594 34.379-83.008 34.379-32.418 0-61.77-13.141-83.008-34.379-21.238-21.238-34.379-50.598-34.379-83.008zm46.262-71.129c-18.203 18.203-29.461 43.352-29.461 71.129 0 27.773 11.258 52.926 29.461 71.129s43.352 29.461 71.129 29.461c27.781 0 52.926-11.258 71.129-29.461 18.203-18.203 29.461-43.355 29.461-71.129 0-27.781-11.258-52.926-29.461-71.129-18.203-18.203-43.352-29.461-71.129-29.461-27.781 0-52.926 11.258-71.129 29.461zm28.27 235.82c-2.7188-2.3086-5.7617-4.0156-9.0039-5.0664-4.418-1.4336-9.293-1.668-14.266-0.59375l-10.438 2.25c-6.3047 1.3633-12.488 1.4023-18.441 0.14453-6.3164-1.457-11.508-3.75-16.766-7.5742-5.1875-3.7617-9.332-8.3594-12.375-13.637l-0.33594-0.59375-65.566 82.891 69.762-14.586c4.2539-0.87891 8.4336 1.6328 9.7031 5.6953l21.68 67.082 46.047-116.01zm167.35-25.066-0.31641 0.5625c-2.9766 5.2383-7.1484 9.8281-12.395 13.645-5.207 3.8164-10.84 6.3516-16.781 7.6055-6.3828 1.2109-12.023 1.2227-18.395-0.14062l-10.457-2.2539c-4.9805-1.0703-9.8555-0.83984-14.273 0.59375-3.2422 1.0508-6.2852 2.7578-9.0078 5.0586l46.047 116 21.68-67.082c1.2695-4.0625 5.4492-6.5742 9.7031-5.6953l69.762 14.586-65.566-82.883zm-96.977-295.98-7.1367-7.9688c-2.6992-3.0078-5.7812-5.3047-9.1602-6.8125-3.3398-1.4883-7.0977-2.25-11.211-2.25-4.1133 0-7.8789 0.76172-11.219 2.25-3.3789 1.5078-6.457 3.7891-9.1523 6.8125l-7.1367 7.9688c-5.4102 6.0508-11.984 10.344-19.176 12.68-7.2031 2.3398-15.035 2.7461-22.926 1.0469l-10.469-2.2539c-3.8945-0.83203-7.6523-0.89844-11.199-0.19922-4.1211 0.97266-7.2109 2.3086-10.656 4.8164-3.3086 2.4023-5.8984 5.2305-7.7188 8.3945-1.832 3.1797-2.9844 6.8594-3.3984 10.922l-1.0977 10.656c-0.82812 8.0625-3.625 15.383-8.0703 21.508-4.457 6.1523-10.562 11.078-17.973 14.352l-9.7695 4.3125c-3.7109 1.6406-6.8477 3.8633-9.3047 6.5938-2.4805 2.7109-4.3711 6.0508-5.6367 9.9531-1.2578 3.875-1.6875 7.6914-1.2969 11.352 0.39062 3.6758 1.6211 7.3203 3.6562 10.84l5.3633 9.2461c4.0664 7.0117 6.1133 14.578 6.1133 22.137 0 7.5664-2.043 15.125-6.1133 22.137l-5.3828 9.2656c-2.0391 3.5195-3.2617 7.1562-3.6523 10.828-0.37891 3.5664 0.019531 7.2695 1.1836 11.02 1.375 3.9688 2.8984 7.1289 5.7422 10.285 2.4258 2.7188 5.5547 4.9414 9.3008 6.5859l9.7969 4.332c7.4023 3.2656 13.508 8.207 17.973 14.352 4.4453 6.125 7.2422 13.445 8.0703 21.508l1.0977 10.637c0.41797 4.0664 1.5625 7.7383 3.3984 10.926 1.8125 3.1562 4.4102 5.9844 7.7188 8.3867 3.2266 2.3398 6.6211 3.9297 10.105 4.6953 4.0742 0.8125 7.6406 0.80078 11.715-0.078125l10.504-2.2539c7.8906-1.6992 15.723-1.2969 22.93 1.0469 7.1914 2.3398 13.758 6.6289 19.168 12.68l7.1367 7.9766c2.6914 3.0078 5.7812 5.2969 9.168 6.8047 3.332 1.4883 7.0977 2.25 11.203 2.25 4.1133 0 7.8789-0.76172 11.219-2.25 3.375-1.5078 6.4609-3.7891 9.1523-6.8047l6.8203-7.6133c5.2266-5.9844 11.918-10.57 19.492-13.031 7.2109-2.3398 15.035-2.7461 22.938-1.0469l10.457 2.2539c3.8906 0.83203 7.6445 0.89844 11.18 0.19922 4.0938-0.94531 7.2539-2.3359 10.676-4.8164 3.2617-2.3398 5.8398-5.1875 7.6992-8.4141 1.8398-3.1289 2.9766-6.7266 3.3984-10.688l1.1172-10.875c0.82812-8.0547 3.625-15.391 8.0703-21.516 4.457-6.1445 10.562-11.078 17.973-14.348l9.7695-4.3203c3.7109-1.6406 6.8477-3.8633 9.3047-6.5938 2.4805-2.707 4.3711-6.0508 5.6367-9.9531 1.25-3.8555 1.6875-7.6719 1.2969-11.344-0.39062-3.6758-1.6133-7.3203-3.6562-10.84l-5.3633-9.2539c-4.0664-7.0117-6.1133-14.57-6.1133-22.137 0-7.5586 2.043-15.125 6.1133-22.137l5.3828-9.2617c2.0391-3.5195 3.2617-7.1562 3.6523-10.828 0.37891-3.5664-0.019531-7.2773-1.1836-11.027-1.3086-3.7773-2.7109-6.8203-5.3594-9.8828-3.0938-3.1953-5.5547-5.1641-9.6836-6.9922l-9.7969-4.332c-7.4023-3.2734-13.508-8.207-17.973-14.352-4.3906-6.0469-7.1836-13.281-8.0352-21.258l-1.1328-10.887c-0.41797-4.0625-1.5664-7.7383-3.3984-10.922-1.8203-3.1602-4.4102-5.9922-7.7188-8.3945-3.3008-2.4023-6.8047-3.9961-10.402-4.7539-3.6133-0.76172-7.4609-0.71484-11.449 0.14062l-10.469 2.2539c-7.9023 1.6992-15.723 1.2969-22.93-1.0469-7.1953-2.3398-13.766-6.6328-19.168-12.68z"/>
</svg>
